<?xml version="1.0" encoding="UTF-8"?>
<svg width="1148px" height="335px" viewBox="0 0 1148 335" version="1.1" xmlns="http://www.w3.org/2000/svg" xmlns:xlink="http://www.w3.org/1999/xlink">
    <title>Artboard@0,5x</title>
    <g id="Artboard" stroke="none" stroke-width="1" fill="none" fill-rule="evenodd">
        <g id="_Catawiki_Brandmark_Blue" fill-rule="nonzero">
            <polygon id="Path" fill="#0033FF" points="334.17 0 0 0 0 334.17 334.17 334.17"/>
            <path d="M237,267.18 L179.53,267.18 C124.639356,266.631347 80.4304874,221.978386 80.4304874,167.085 C80.4304874,112.191614 124.639356,67.5386527 179.53,66.99 L237,66.99 L237,267.18 Z" id="Path" fill="#FFFFFF"/>
            <path d="M990.24,74.71 C983.315011,74.7155048 977.701025,80.3250174 977.69,87.25 L977.69,87.69 C977.69,94.6211736 983.308826,100.24 990.24,100.24 C997.171174,100.24 1002.79,94.6211736 1002.79,87.69 L1002.79,87.25 C1002.77898,80.3250174 997.164989,74.7155048 990.24,74.71 L990.24,74.71 Z" id="Path" fill="#0033FF"/>
            <path d="M553.49,114.68 C545.85608,114.547658 538.284621,116.07628 531.3,119.16 C525.092195,121.939567 519.538595,125.994036 515,131.06 C510.593151,136.12436 507.198501,141.986921 505,148.33 C502.67131,154.868682 501.484019,161.759026 501.489802,168.7 C501.472176,175.619162 502.659934,182.488532 505,189 C507.213356,195.30615 510.607114,201.133233 515,206.17 C519.546684,211.209353 525.09948,215.239389 531.3,218 C538.284621,221.08372 545.85608,222.612342 553.49,222.48 C559.724469,222.532211 565.913873,221.419814 571.74,219.2 C576.943969,217.273931 581.66167,214.228932 585.56,210.28 L586.62,209.18 L586.62,219.6 L608.84,219.6 L608.84,117.55 L586.62,117.55 L586.62,128 L585.56,126.9 C581.653975,122.965344 576.938083,119.928337 571.74,118 C565.916041,115.768119 559.726855,114.642196 553.49,114.68 Z M584.8,154.08 C588.400216,163.494205 588.400216,173.905795 584.8,183.32 C583.144907,187.311518 580.640173,190.894585 577.46,193.82 C574.42208,196.559292 570.865135,198.660814 567,200 C563.165888,201.32629 559.137026,202.002057 555.08,202 C550.678559,202.051761 546.320475,201.126181 542.32,199.29 C538.580767,197.542021 535.212859,195.090782 532.4,192.07 C529.581149,188.99337 527.396194,185.391422 525.97,181.47 C524.465674,177.363912 523.703805,173.02295 523.719747,168.65 C523.710725,164.24181 524.472188,159.865936 525.97,155.72 C527.377846,151.757008 529.564052,148.115598 532.4,145.01 C535.208841,141.984687 538.57769,139.532763 542.32,137.79 C546.299927,135.982576 550.629244,135.074376 555,135.13 C559.057416,135.123001 563.087061,135.799116 566.92,137.13 C570.825769,138.475817 574.40608,140.625367 577.43,143.44 C580.606585,146.429769 583.117767,150.05514 584.8,154.08 Z" id="Shape" fill="#0033FF"/>
            <path d="M648.43,91.68 L626.21,91.68 L626.21,188.16 C626.21,197.67 629.41,205.37 635.74,211.04 C642.07,216.71 651.74,219.62 664.52,219.62 L680.72,219.62 L680.72,200.28 L664.72,200.28 C653.89,200.28 648.4,194.86 648.4,184.18 L648.4,136.9 L680.69,136.9 L680.69,117.55 L648.43,117.55 L648.43,91.68 Z" id="Path" fill="#0033FF"/>
            <path d="M739.68,114.68 C732.042865,114.547801 724.468178,116.076386 717.48,119.16 C711.284314,121.945503 705.741682,125.999426 701.21,131.06 C696.782137,136.119663 693.366977,141.982467 691.15,148.33 C688.830085,154.870684 687.646341,161.760076 687.649932,168.7 C687.639621,175.601376 688.823763,182.452483 691.15,188.95 C693.381836,195.26058 696.796098,201.087905 701.21,206.12 C705.744846,211.172029 711.287034,215.218814 717.48,218 C724.468469,221.082698 732.042952,222.611242 739.68,222.48 C745.911152,222.531434 752.097136,221.419043 757.92,219.2 C763.123763,217.267667 767.843447,214.22359 771.75,210.28 L772.75,209.18 L772.75,219.6 L795,219.6 L795,117.55 L772.8,117.55 L772.8,128 L771.8,126.9 C767.877404,122.957032 763.140109,119.91943 757.92,118 C752.09924,115.769116 745.913517,114.643206 739.68,114.68 Z M771,154.08 C774.600216,163.494205 774.600216,173.905795 771,183.32 C769.337909,187.307676 766.834161,190.889332 763.66,193.82 C760.611455,196.572639 757.040743,198.68446 753.16,200.03 C749.325702,201.355561 745.296963,202.032057 741.24,202.03 C736.838559,202.081761 732.480475,201.156181 728.48,199.32 C724.739234,197.574619 721.370858,195.123039 718.56,192.1 C715.737769,189.025906 713.552383,185.423248 712.13,181.5 C710.625674,177.393912 709.863805,173.05295 709.879747,168.68 C709.872212,164.272799 710.630148,159.897749 712.12,155.75 C713.531318,151.786422 715.720904,148.145044 718.56,145.04 C721.368841,142.014687 724.73769,139.562763 728.48,137.82 C732.479843,135.98191 736.838361,135.056237 741.24,135.11 C745.297354,135.103762 749.326872,135.779855 753.16,137.11 C757.062716,138.455994 760.639723,140.605605 763.66,143.42 C766.827383,146.419082 769.328231,150.051105 771,154.08 Z" id="Shape" fill="#0033FF"/>
            <rect id="Rectangle" fill="#0033FF" x="979.24" y="117.55" width="22.22" height="102.07"/>
            <path d="M1134.8,74.71 C1127.87501,74.7155048 1122.26102,80.3250174 1122.25,87.25 L1122.25,87.69 C1122.25,94.6211736 1127.86883,100.24 1134.8,100.24 C1141.73117,100.24 1147.35,94.6211736 1147.35,87.69 L1147.35,87.25 C1147.33898,80.3250174 1141.72499,74.7155048 1134.8,74.71 Z" id="Path" fill="#0033FF"/>
            <rect id="Rectangle" fill="#0033FF" x="1123.8" y="117.55" width="22.22" height="102.07"/>
            <path d="M897.8,180.67 L897.8,117.55 L875.58,117.55 L875.58,180.67 C875.58,192.26798 866.17798,201.67 854.58,201.67 C842.98202,201.67 833.58,192.26798 833.58,180.67 L833.58,117.55 L811.36,117.55 L811.36,179.69 C811.387553,203.548325 830.721675,222.882447 854.58,222.910147 C866.6219,222.941596 878.118142,217.890657 886.24,209 L886.69,208.52 L887.14,209 C899.208359,222.030464 918.02453,226.34225 934.562673,219.867057 C951.100815,213.391864 961.987284,197.450578 962,179.69 L962,117.55 L939.8,117.55 L939.8,180.67 C939.8,192.26798 930.39798,201.67 918.8,201.67 C907.20202,201.67 897.8,192.26798 897.8,180.67 L897.8,180.67 Z" id="Path" fill="#0033FF"/>
            <path d="M1084.1,160.6 C1098.38,145.7 1105.48,127.48 1108.46,117.84 L1108.55,117.55 L1085.55,117.55 C1080.15,131.63 1067.77,154.84 1043.55,160.03 L1043.55,76.42 L1022,76.42 L1022,219.62 L1043.6,219.62 L1043.6,182 C1051.77975,180.839657 1059.67135,178.163908 1066.87,174.11 L1090.87,219.59 L1115.27,219.59 L1084.1,160.6 Z" id="Path" fill="#0033FF"/>
            <path d="M430.7,130.88 C425.956939,135.659021 422.18715,141.313705 419.6,147.53 C416.8559,154.167043 415.475171,161.288341 415.54,168.47 C415.486056,175.670092 416.866219,182.808868 419.6,189.47 C422.157547,195.734527 425.930078,201.430709 430.7,206.23 C435.458949,210.968005 441.116265,214.707817 447.34,217.23 C453.995422,219.899243 461.109582,221.23782 468.28,221.17 L498,221.17 L498,201.3 L469.64,201.3 C465.318761,201.338719 461.037162,200.473543 457.07,198.76 C453.346701,197.127697 450.000263,194.74468 447.24,191.76 C444.478471,188.738468 442.310691,185.223883 440.85,181.4 C437.769605,173.024244 437.769605,163.825756 440.85,155.45 C442.310691,151.626117 444.478471,148.111532 447.24,145.09 C449.993472,142.135004 453.344384,139.799934 457.07,138.24 C461.054483,136.594699 465.329388,135.768286 469.64,135.81 L498,135.81 L498,115.94 L468.28,115.94 C461.105593,115.891243 453.991289,117.250231 447.34,119.94 C441.1223,122.446281 435.465714,126.165214 430.7,130.88 L430.7,130.88 Z" id="Path" fill="#0033FF"/>
        </g>
    </g>
</svg>