<svg width="130" height="35" viewBox="0 0 130 35" xmlns="http://www.w3.org/2000/svg"><title>logo</title><path d="M45.956 23.216h-2.294v-10.9h2.294v10.9zm-2.15-13.072a1.4 1.4 0 0 1-.43-1.025 1.4 1.4 0 0 1 .43-1.025 1.4 1.4 0 0 1 1.023-.43 1.4 1.4 0 0 1 1.024.43 1.4 1.4 0 0 1 .43 1.024 1.4 1.4 0 0 1-.43 1.024 1.4 1.4 0 0 1-1.025.43 1.4 1.4 0 0 1-1.025-.43zm7.764 7.17v5.902h-2.295v-10.9h2.295v1.987a3.637 3.637 0 0 1 1.485-1.578 4.21 4.21 0 0 1 2.14-.573c1.723 0 2.89.71 3.505 2.13 1.08-1.42 2.424-2.13 4.036-2.13 1.23 0 2.223.375 2.98 1.126.76.752 1.14 1.838 1.14 3.258v6.68H64.56v-5.983c0-2.008-.833-3.012-2.5-3.012-.78 0-1.458.25-2.038.75-.58.498-.885 1.225-.912 2.18v6.066h-2.295v-5.983c0-1.038-.184-1.8-.553-2.285-.37-.484-.95-.727-1.742-.727s-1.482.264-2.07.79c-.587.526-.88 1.294-.88 2.305zm20.734.472c0 1.038.315 1.888.943 2.55.628.664 1.393.994 2.295.994.9 0 1.687-.327 2.356-.983.67-.656 1.004-1.506 1.004-2.55 0-1.046-.328-1.913-.984-2.603-.655-.69-1.44-1.035-2.356-1.035-.915 0-1.687.345-2.315 1.034-.628.69-.943 1.554-.943 2.592zm3.586-5.634c1.46 0 2.71.505 3.75 1.516 1.037 1.01 1.557 2.356 1.557 4.036 0 1.68-.516 3.046-1.547 4.098-1.032 1.052-2.234 1.577-3.606 1.577-1.373 0-2.606-.602-3.7-1.804v5.614h-2.293V12.315h2.295v1.906c.902-1.38 2.083-2.068 3.545-2.068zm13.645 2.315c-1.134 0-1.987.37-2.56 1.106-.574.738-.86 1.728-.86 2.97v4.673h-2.296v-10.9h2.294v2.192c.37-.683.87-1.243 1.506-1.68.635-.437 1.307-.663 2.018-.676l.02 2.315h-.123zm8.852 4.692v-.923h-2.582c-1.653 0-2.48.52-2.48 1.557 0 .533.206.94.615 1.22.41.28.98.42 1.71.42.732 0 1.37-.206 1.917-.616.546-.41.82-.963.82-1.66zm2.294 4.056h-2.09V21.76c-.9 1.08-2.11 1.62-3.625 1.62-1.134 0-2.073-.32-2.817-.963-.745-.642-1.117-1.5-1.117-2.572s.397-1.875 1.19-2.407c.79-.533 1.864-.8 3.216-.8h2.97v-.41c0-1.447-.805-2.17-2.417-2.17-1.012 0-2.063.368-3.156 1.105L91.81 13.73c1.324-1.052 2.827-1.578 4.507-1.578 1.284 0 2.332.324 3.145.973.813.65 1.22 1.67 1.22 3.063v7.028zm5.492 0h-2.295v-10.9h2.295v10.9zm-2.15-13.072a1.4 1.4 0 0 1-.432-1.025 1.4 1.4 0 0 1 .43-1.025 1.4 1.4 0 0 1 1.025-.43 1.4 1.4 0 0 1 1.024.43 1.4 1.4 0 0 1 .43 1.024c0 .395-.144.737-.43 1.024a1.4 1.4 0 0 1-1.025.43 1.4 1.4 0 0 1-1.024-.43zm13.234 9.814c0 1.038-.376 1.868-1.127 2.49-.752.62-1.715.93-2.89.93-.792 0-1.615-.142-2.468-.43a7.415 7.415 0 0 1-2.264-1.208l1.106-1.782c1.27.956 2.5 1.434 3.688 1.434.52 0 .93-.12 1.23-.358.3-.24.45-.544.45-.912 0-.546-.724-1.038-2.172-1.475a2.56 2.56 0 0 0-.246-.082c-2.267-.615-3.4-1.64-3.4-3.074 0-1.01.392-1.82 1.177-2.427.787-.607 1.807-.91 3.064-.91 1.257 0 2.445.367 3.565 1.105l-.86 1.7a5.137 5.137 0 0 0-2.89-.88c-.547 0-.99.1-1.332.297a.966.966 0 0 0-.512.89c0 .356.177.616.533.78.245.122.59.24 1.033.348.444.11.837.218 1.18.328.34.11.67.233.992.37.32.136.666.327 1.035.573.737.492 1.106 1.257 1.106 2.295zm4.2-2.992h6.25c0-.915-.288-1.618-.86-2.11-.575-.492-1.282-.738-2.122-.738a3.63 3.63 0 0 0-2.264.77c-.67.51-1.004 1.204-1.004 2.078zM130 18.77h-8.544c.055.792.417 1.43 1.086 1.915.67.485 1.434.727 2.295.727 1.366 0 2.404-.43 3.114-1.29l1.312 1.434c-1.174 1.216-2.704 1.823-4.59 1.823-1.53 0-2.83-.51-3.902-1.527-1.073-1.017-1.61-2.383-1.61-4.098 0-1.714.548-3.076 1.64-4.087 1.093-1.01 2.38-1.516 3.863-1.516 1.482 0 2.742.447 3.78 1.342 1.038.894 1.557 2.127 1.557 3.698v1.577zM25.182 24.073H13.536c-2 0-2.884-1.565-1.883-3.294l5.822-10.094c1-1.727 2.768-1.71 3.768.02l5.823 10.074c1 1.73.115 3.294-1.884 3.294zm-14.418-3.73c-.093.162-.173.324-.242.486H8.078c-1.235 0-1.78-1.09-1.164-2.156l3.598-6.298c.312-.538.744-.81 1.175-.81.424 0 .847.263 1.153.79l1.248 2.198-.592 1.03-1.547-2.72c-.13-.22-.246-.273-.263-.273-.02 0-.146.053-.29.3L7.805 19.18c-.133.23-.142.414-.094.498.046.08.184.126.368.126h2.996l-.31.54zM17.074 0C7.644 0 0 7.644 0 17.074c0 9.43 7.644 17.074 17.074 17.074 9.43 0 17.074-7.644 17.074-17.074C34.148 7.644 26.504 0 17.074 0z" fill="#FF9E21" fill-rule="evenodd"/></svg>