<svg width="241" height="32" viewBox="0 0 241 32" fill="none" xmlns="http://www.w3.org/2000/svg">
<path d="M28.35 0V31.9C19.5499 31.9 12.35 24.8 12.35 15.9C12.45 7.1 19.5499 0 28.35 0ZM48.35 0C39.55 0 32.35 7.1 32.35 16C32.35 24.8 39.45 32 48.35 32C57.15 32 64.35 24.9 64.35 16C64.35 7.1 57.15 0 48.35 0ZM0.449951 16C0.449951 21.9 3.64995 27 8.44995 29.8V2.1C3.64995 4.9 0.449951 10.1 0.449951 16Z" fill="#00E070"/>
<path d="M89.5499 8.2C90.0499 8.3 90.4499 8.5 90.7499 8.7L89.4499 12.2C89.1499 12 88.8499 11.9 88.5499 11.7C88.2499 11.6 87.7499 11.5 87.2499 11.5C86.1499 11.5 85.3499 11.8 84.8499 12.4C84.2499 13 84.0499 14 84.0499 15.4V23.9H80.3499V8H84.0499V10.4C84.6499 8.8 86.0499 8 88.0499 8C88.6499 8 89.1499 8 89.5499 8.2ZM134.65 7.7C133.65 7.7 132.75 7.9 131.95 8.3C131.15 8.7 130.45 9.2 129.95 9.9V3.8H126.25V24H129.95V15.2C129.95 14.5 130.05 13.9 130.25 13.3C130.45 12.8 130.75 12.3 131.05 11.9C131.35 11.5 131.75 11.3 132.25 11.1C132.75 10.9 133.15 10.8 133.65 10.8C134.85 10.8 135.75 11.2 136.35 11.9C136.95 12.6 137.25 13.6 137.25 14.9V24H141.05V14.5C141.05 12.4 140.45 10.7 139.35 9.5C138.25 8.3 136.65 7.7 134.65 7.7ZM155.85 8H159.55V24H155.85V21.9C155.25 22.6 154.55 23.2 153.65 23.7C152.75 24.1 151.75 24.3 150.75 24.3C149.75 24.3 148.85 24.1 147.85 23.7C146.95 23.3 146.05 22.8 145.35 22.1C144.65 21.4 144.05 20.5 143.55 19.5C143.05 18.5 142.85 17.3 142.85 16C142.85 14.7 143.05 13.5 143.55 12.5C143.95 11.5 144.55 10.6 145.35 9.9C146.05 9.2 146.95 8.7 147.85 8.3C148.85 7.9 149.75 7.7 150.75 7.7C151.85 7.7 152.75 7.9 153.65 8.3C154.55 8.7 155.25 9.2 155.85 9.9V8ZM156.05 15.9C156.05 15.2 155.95 14.6 155.65 14C155.45 13.4 155.05 12.9 154.65 12.4C154.25 12 153.75 11.6 153.15 11.3C152.55 11 151.95 10.9 151.25 10.9C150.55 10.9 149.95 11 149.35 11.3C148.75 11.6 148.25 11.9 147.85 12.3C147.45 12.7 147.05 13.3 146.85 13.9C146.65 14.5 146.45 15.1 146.45 15.8C146.45 16.5 146.55 17.1 146.85 17.8C147.05 18.4 147.45 18.9 147.85 19.4C148.25 19.8 148.85 20.2 149.35 20.5C149.95 20.8 150.55 20.9 151.25 20.9C151.95 20.9 152.55 20.8 153.15 20.5C153.75 20.2 154.25 19.9 154.65 19.4C155.05 18.9 155.45 18.4 155.65 17.8C155.95 17.3 156.05 16.6 156.05 15.9ZM169.25 8C167.25 8 165.95 8.8 165.15 10.4V8H161.45V24H165.15V15.5C165.15 14.1 165.45 13.1 165.95 12.5C166.55 11.9 167.35 11.6 168.35 11.6C168.85 11.6 169.35 11.7 169.65 11.8C169.95 11.9 170.25 12.1 170.55 12.3L171.95 8.8C171.55 8.6 171.15 8.4 170.75 8.3C170.35 8 169.85 8 169.25 8ZM185.05 8H188.75V24C188.75 27.6 185.95 31.9 181.95 32C180.75 32 179.95 32 178.85 32C178.85 31.1 178.85 29.7 178.85 28.6C183.05 28.6 185.25 27.7 185.25 21.9C184.65 22.7 183.95 23.3 183.05 23.7C182.15 24.1 181.15 24.4 180.05 24.4C179.05 24.4 178.15 24.2 177.15 23.9C176.25 23.5 175.35 23 174.65 22.3C173.95 21.6 173.25 20.7 172.85 19.7C172.35 18.7 172.15 17.5 172.15 16.2C172.15 14.9 172.35 13.7 172.75 12.7C173.15 11.7 173.75 10.8 174.55 10.1C175.25 9.4 176.15 8.8 177.05 8.5C178.05 8.1 178.95 7.9 179.95 7.9C181.05 7.9 181.95 8.1 182.85 8.5C183.75 8.9 184.45 9.5 185.05 10.2V8ZM185.35 15.9C185.35 15.2 185.25 14.6 184.95 14C184.75 13.4 184.35 12.9 183.95 12.4C183.55 12 183.05 11.6 182.45 11.3C181.85 11 181.25 10.9 180.55 10.9C179.85 10.9 179.25 11 178.65 11.3C178.05 11.6 177.55 11.9 177.15 12.3C176.75 12.7 176.35 13.3 176.15 13.9C175.95 14.5 175.75 15.1 175.75 15.8C175.75 16.5 175.85 17.1 176.15 17.8C176.35 18.4 176.75 18.9 177.15 19.4C177.55 19.8 178.15 20.2 178.65 20.5C179.25 20.8 179.85 20.9 180.55 20.9C181.25 20.9 181.85 20.8 182.45 20.5C183.05 20.2 183.55 19.9 183.95 19.4C184.35 18.9 184.75 18.4 184.95 17.8C185.25 17.3 185.35 16.6 185.35 15.9ZM206.55 12.6C206.95 13.6 207.15 14.7 207.15 15.9V17.3H194.15C194.45 18.4 194.95 19.3 195.85 20C196.75 20.7 197.75 21 199.05 21H200.55V24.2H199.05C197.75 24.2 196.65 24 195.65 23.6C194.65 23.2 193.75 22.6 192.95 21.8C192.25 21.1 191.65 20.2 191.25 19.2C190.85 18.2 190.65 17.1 190.65 16C190.65 14.8 190.85 13.7 191.25 12.7C191.65 11.7 192.25 10.8 193.05 10.1C193.75 9.4 194.65 8.8 195.65 8.3C196.65 7.9 197.75 7.6 198.95 7.6C200.15 7.6 201.25 7.8 202.25 8.2C203.25 8.6 204.15 9.2 204.85 9.9C205.55 10.7 206.15 11.6 206.55 12.6ZM203.45 14.2C203.15 13.1 202.65 12.3 201.85 11.8C201.05 11.2 200.15 11 198.95 11C197.85 11 196.85 11.3 196.05 11.9C195.25 12.5 194.65 13.3 194.35 14.3H203.45V14.2ZM205.55 21C205.05 21 204.65 21.2 204.35 21.4C204.05 21.7 203.95 22.1 203.95 22.6C203.95 23.1 204.05 23.5 204.35 23.8C204.65 24.1 205.05 24.2 205.55 24.2C206.05 24.2 206.45 24 206.75 23.8C207.05 23.5 207.15 23.1 207.15 22.6C207.15 22.1 207.05 21.7 206.75 21.4C206.45 21.2 206.05 21 205.55 21ZM226.75 18.3C226.95 18.8 227.05 19.3 227.05 19.9C227.05 20.5 226.95 21 226.75 21.5C226.55 22 226.25 22.4 225.85 22.8C225.45 23.2 225.05 23.5 224.55 23.7C224.05 23.9 223.55 24 222.95 24C222.35 24 221.85 23.9 221.35 23.7C220.85 23.5 220.45 23.2 220.05 22.8C219.65 22.4 219.35 22 219.15 21.5C218.95 21 218.85 20.5 218.85 19.9C218.85 19.3 218.95 18.8 219.15 18.3C219.35 17.8 219.65 17.4 220.05 17C220.45 16.6 220.85 16.3 221.35 16.1C221.85 15.9 222.35 15.8 222.95 15.8C223.55 15.8 224.05 15.9 224.55 16.1C225.05 16.3 225.45 16.6 225.85 17C226.25 17.4 226.55 17.8 226.75 18.3ZM225.25 20C225.25 19.7 225.15 19.3 225.05 19.1C224.95 18.8 224.75 18.5 224.55 18.3C224.35 18.1 224.05 17.9 223.85 17.8C223.55 17.7 223.25 17.6 222.95 17.6C222.65 17.6 222.35 17.7 222.05 17.8C221.75 17.9 221.55 18.1 221.35 18.3C221.15 18.5 220.95 18.8 220.85 19.1C220.75 19.4 220.65 19.7 220.65 20C220.65 20.3 220.75 20.6 220.85 20.9C220.95 21.2 221.15 21.5 221.35 21.7C221.55 21.9 221.85 22.1 222.05 22.2C222.35 22.3 222.65 22.4 222.95 22.4C223.25 22.4 223.55 22.3 223.85 22.2C224.15 22.1 224.35 21.9 224.55 21.7C224.75 21.5 224.95 21.2 225.05 20.9C225.25 20.6 225.25 20.3 225.25 20ZM239.65 16.7C239.15 16.1 238.25 15.8 237.25 15.8C236.65 15.8 236.15 15.9 235.75 16.2C235.25 16.5 234.95 16.8 234.65 17.2C234.45 16.8 234.05 16.4 233.65 16.2C233.25 16 232.65 15.8 232.05 15.8C231.55 15.8 231.15 15.9 230.75 16.1C230.35 16.3 230.05 16.6 229.75 16.9V16H227.95V24H229.75V19.6C229.75 18.9 229.95 18.4 230.25 18C230.55 17.6 231.05 17.5 231.55 17.5C232.15 17.5 232.55 17.7 232.85 18C233.15 18.3 233.25 18.8 233.25 19.4V24.1H235.15V19.6C235.15 18.9 235.35 18.4 235.65 18C235.95 17.7 236.45 17.5 236.95 17.5C237.55 17.5 237.95 17.7 238.25 18C238.55 18.3 238.65 18.8 238.65 19.4V24.1H240.55V19.3C240.45 18.1 240.15 17.3 239.65 16.7ZM122.05 18.1C121.95 18 121.75 18 121.65 17.9C121.25 18.7 120.75 19.4 120.05 20C119.35 20.6 118.45 20.8 117.35 20.8C116.65 20.8 116.05 20.7 115.45 20.4C114.85 20.1 114.35 19.8 113.95 19.4C113.55 19 113.15 18.4 112.95 17.9C112.75 17.3 112.55 16.7 112.55 16C112.55 15.3 112.65 14.7 112.95 14.1C113.15 13.5 113.55 13 113.95 12.6C114.35 12.2 114.85 11.8 115.45 11.6C116.05 11.3 116.65 11.2 117.35 11.2C118.35 11.2 119.25 11.5 119.95 12C120.75 12.5 121.25 13.2 121.65 14.1C121.85 14 122.05 13.9 122.25 13.8C122.65 13.6 123.05 13.5 123.55 13.3C123.95 13.1 124.45 12.9 124.95 12.7C124.65 12 124.25 11.3 123.75 10.7C123.25 10.1 122.65 9.6 122.05 9.1C121.35 8.7 120.65 8.3 119.85 8.1C119.05 7.9 118.25 7.7 117.35 7.7C116.15 7.7 115.05 7.9 114.05 8.3C113.05 8.7 112.15 9.3 111.45 10.1C110.75 10.9 110.15 11.7 109.65 12.7C109.25 13.7 109.05 14.8 109.05 16C109.05 17.1 109.25 18.2 109.65 19.2C110.05 20.2 110.65 21.1 111.45 21.8C112.15 22.5 113.05 23.1 114.05 23.6C115.05 24 116.15 24.3 117.35 24.3C118.25 24.3 119.15 24.2 119.95 23.9C120.75 23.7 121.45 23.3 122.15 22.9C122.75 22.5 123.35 21.9 123.85 21.3C124.35 20.7 124.75 20 125.05 19.3L124.05 18.9C123.25 18.5 122.55 18.3 122.05 18.1ZM106.75 12.6C107.15 13.6 107.35 14.7 107.35 15.8V17.2H94.4499C94.7499 18.3 95.2498 19.2 96.1498 19.9C96.9498 20.6 98.0499 20.9 99.3499 20.9C100.35 20.9 101.25 20.6 102.05 20.1C102.65 19.7 103.15 19.2 103.55 18.5C104.25 18.8 105.25 19.2 106.75 19.8C106.05 21.1 105.15 22.1 103.85 22.9C102.65 23.7 101.15 24.1 99.3499 24.1C98.1499 24.1 96.9499 23.9 95.9499 23.5C94.9499 23.1 94.0499 22.5 93.3499 21.8C92.6499 21.1 92.0498 20.2 91.6498 19.2C91.2498 18.2 91.0499 17.1 91.0499 16C91.0499 14.8 91.2498 13.8 91.6498 12.8C92.0498 11.8 92.6499 10.9 93.3499 10.2C94.0499 9.5 94.9499 8.9 95.9499 8.4C96.9499 8 98.0498 7.8 99.1498 7.8C100.35 7.8 101.45 8 102.45 8.4C103.45 8.8 104.35 9.4 105.05 10.1C105.75 10.7 106.35 11.6 106.75 12.6ZM103.65 14.1C103.35 13 102.85 12.2 102.05 11.7C101.25 11.2 100.35 10.9 99.1498 10.9C98.0498 10.9 97.0499 11.2 96.2499 11.8C95.4499 12.4 94.8499 13.2 94.5499 14.2H103.65V14.1ZM215.95 22C215.55 22.3 215.15 22.4 214.65 22.4C214.35 22.4 213.95 22.3 213.75 22.2C213.45 22.1 213.25 21.9 212.95 21.7C212.75 21.5 212.55 21.2 212.45 20.9C212.35 20.6 212.25 20.3 212.25 20C212.25 19.7 212.35 19.3 212.45 19.1C212.55 18.8 212.75 18.5 212.95 18.3C213.15 18.1 213.45 17.9 213.65 17.8C213.95 17.7 214.25 17.6 214.55 17.6C215.05 17.6 215.45 17.7 215.85 18C216.25 18.3 216.55 18.6 216.65 19C217.05 18.8 217.55 18.6 218.25 18.3C218.05 17.9 217.85 17.6 217.65 17.3C217.45 17 217.15 16.7 216.75 16.5C216.45 16.3 216.05 16.1 215.65 16C215.25 15.9 214.85 15.8 214.35 15.8C213.75 15.8 213.25 15.9 212.75 16.1C212.25 16.3 211.85 16.6 211.45 17C211.05 17.4 210.75 17.8 210.55 18.3C210.35 18.8 210.25 19.3 210.25 19.9C210.25 20.5 210.35 21 210.55 21.5C210.75 22 211.05 22.4 211.45 22.8C211.85 23.2 212.25 23.5 212.75 23.7C213.25 23.9 213.75 24 214.35 24C214.85 24 215.25 23.9 215.65 23.8C216.05 23.7 216.45 23.5 216.75 23.3C217.05 23.1 217.35 22.8 217.65 22.5C217.85 22.2 218.05 21.9 218.25 21.5C217.55 21.2 217.05 21 216.55 20.8C216.55 21.4 216.35 21.7 215.95 22Z" fill="#00373D"/>
</svg>