<?xml version="1.0" encoding="UTF-8"?>
<svg width="542px" height="152px" viewBox="0 0 542 152" version="1.1" xmlns="http://www.w3.org/2000/svg" xmlns:xlink="http://www.w3.org/1999/xlink">
    <title>Amsterdam-rb Logo</title>
    <g id="Inspiration" stroke="none" stroke-width="1" fill="none" fill-rule="evenodd">
        <g id="Amsterdam-rb-Logo" transform="translate(-129.000000, -124.000000)" fill="#FD2846">
            <path d="M219,124 L266.99171,176 L229.01771,275.955 L286.99171,176 L239,124 L280.99171,124 L328.99171,176 L229.00671,275.985 L229,276 L228.99571,275.996 L228.99171,276 L228.99471,275.994 L129,176 L177,124 L219,124 Z M419.482857,200.5 L419.893671,200.503107 C423.279026,200.554882 425.712088,201.253846 427.192857,202.6 C428.732857,204 429.502857,206.04 429.502857,208.72 C429.502857,211.4 429.012857,213.47 428.032857,214.93 C427.052857,216.39 425.742857,217.34 424.102857,217.78 L424.102857,217.78 L424.102857,218.14 L424.390353,218.193352 C429.038689,219.112984 431.362857,222.3952 431.362857,228.04 C431.362857,231.04 430.562857,233.45 428.962857,235.27 C427.362857,237.09 424.902857,238 421.582857,238 L421.582857,238 L400.042857,238 L400.042857,200.5 L419.482857,200.5 Z M382.9,200.5 L383.265939,200.502682 C391.62198,200.626037 395.8,205.005143 395.8,213.64 C395.8,219.64 393.94,223.6 390.22,225.52 L390.22,225.52 L396.7,238 L383.5,238 L378.58,226.84 L376,226.84 L376,238 L364,238 L364,200.5 L382.9,200.5 Z M416.722857,223.06 L412.042857,223.06 L412.042857,229.18 L416.662857,229.18 C418.342857,229.18 419.182857,228.16 419.182857,226.12 C419.182857,224.08 418.362857,223.06 416.722857,223.06 L416.722857,223.06 Z M378.76,210.1 L376,210.1 L376,217.6 L378.76,217.6 C380.2,217.6 381.25,217.45 381.91,217.15 C382.57,216.85 382.9,216.16 382.9,215.08 L382.9,215.08 L382.9,212.62 L382.8956,212.4092 C382.854533,211.449733 382.526,210.83 381.91,210.55 C381.25,210.25 380.2,210.1 378.76,210.1 L378.76,210.1 Z M415.822857,208.72 L412.042857,208.72 L412.042857,214.3 L415.762857,214.3 C417.282857,214.3 418.042857,213.37 418.042857,211.51 C418.042857,209.65 417.302857,208.72 415.822857,208.72 L415.822857,208.72 Z M463.505714,147.1 C467.985714,147.1 472.105714,147.72 475.865714,148.96 L475.865714,148.96 L474.485714,157.12 L473.817143,156.938163 C470.92,156.179388 468.022857,155.8 465.125714,155.8 C464.165714,155.8 462.805714,155.88 461.045714,156.04 L461.045714,156.04 L461.045714,157.96 L461.566562,157.962104 C467.762033,158.012593 471.988417,158.971892 474.245714,160.84 C475.405714,161.8 476.225714,162.85 476.705714,163.99 C477.185714,165.13 477.425714,166.51 477.425714,168.13 C477.425714,169.75 477.235714,171.2 476.855714,172.48 C476.475714,173.76 475.895714,174.78 475.115714,175.54 C474.335714,176.3 473.525714,176.92 472.685714,177.4 C471.845714,177.88 470.745714,178.22 469.385714,178.42 C467.265714,178.74 464.805714,178.9 462.005714,178.9 C457.045714,178.9 452.565714,178.32 448.565714,177.16 L448.565714,177.16 L450.065714,168.64 L450.698996,168.828906 C453.881808,169.742969 457.310714,170.2 460.985714,170.2 C462.785714,170.2 464.425714,170.12 465.905714,169.96 L465.905714,169.96 L465.905714,168.04 L465.362016,168.037943 C459.255339,167.991314 455.026571,167.152 452.675714,165.52 C450.255714,163.84 449.045714,161.05 449.045714,157.15 C449.045714,153.25 450.325714,150.6 452.885714,149.2 C455.485714,147.8 459.025714,147.1 463.505714,147.1 Z M605.5,147.1 C615.1,147.1 619.9,150.4 619.9,157 L619.9,157 L619.9,178 L613.9,178 L610.48,174.58 L610.2424,174.848 C609.107467,176.08 607.606667,177.050667 605.74,177.76 C603.74,178.52 601.85,178.9 600.07,178.9 C598.29,178.9 596.86,178.76 595.78,178.48 C594.7,178.2 593.64,177.72 592.6,177.04 C590.32,175.6 589.18,172.92 589.18,169 C589.18,161.8 594.62,158.2 605.5,158.2 L605.5,158.2 L607.9,158.2 L607.9,156.04 L607.481481,156.014815 C606.38716,155.951605 605.466667,155.92 604.72,155.92 C600.2,155.92 596.32,156.46 593.08,157.54 L593.08,157.54 L591.64,148.96 L592.215646,148.787075 C596.081406,147.662358 600.509524,147.1 605.5,147.1 Z M516.421429,147.1 C522.001429,147.1 525.851429,147.86 527.971429,149.38 C530.091429,150.9 531.151429,153.74 531.151429,157.9 C531.151429,161.42 529.881429,163.95 527.341429,165.49 C524.801429,167.03 520.171429,167.8 513.451429,167.8 L513.451429,167.8 L513.451429,169.9 L514.171429,169.9648 C515.131429,170.0416 516.091429,170.08 517.051429,170.08 C520.771429,170.08 524.531429,169.48 528.331429,168.28 L528.331429,168.28 L529.771429,177.1 L528.931897,177.317969 C524.736585,178.372656 520.576429,178.9 516.451429,178.9 C510.851429,178.9 506.801429,177.59 504.301429,174.97 C501.801429,172.35 500.551429,168.36 500.551429,163 C500.551429,157.64 501.801429,153.65 504.301429,151.03 C506.801429,148.41 510.841429,147.1 516.421429,147.1 Z M586.137143,138.1 L586.137143,178 L580.137143,178 L577.557143,175.48 L577.3881,175.69041 C575.599545,177.830137 572.515893,178.9 568.137143,178.9 C565.697143,178.9 563.597143,178.44 561.837143,177.52 C560.077143,176.6 558.737143,175.34 557.817143,173.74 C556.097143,170.74 555.237143,167.16 555.237143,163 C555.237143,157.92 556.357143,154.08 558.597143,151.48 C559.437143,150.48 560.597143,149.65 562.077143,148.99 C563.557143,148.33 565.277143,148 567.237143,148 L567.237143,148 L574.137143,148 L574.137143,139 L586.137143,138.1 Z M493.968571,140.2 L493.968571,148 L498.108571,148 L498.108571,155.74 L493.968571,155.74 L493.968571,169.42 L494.365134,169.492188 C495.305759,169.654063 496.353571,169.77 497.508571,169.84 L497.508571,169.84 L496.968571,178.66 C491.488571,178.66 487.928571,178.36 486.288571,177.76 C484.248571,177.04 482.968571,176.08 482.448571,174.88 C482.128571,174.16 481.968571,173.32 481.968571,172.36 L481.968571,172.36 L481.968571,155.74 L478.968571,155.74 L478.968571,148 L481.968571,148 L481.968571,143.2 L493.968571,140.2 Z M388.54,140.5 L398.26,178 L385.6,178 L384.22,172.06 L374.32,172.06 L372.94,178 L360.28,178 L370,140.5 L388.54,140.5 Z M552.974286,147.1 L553.694286,158.44 L553.448244,158.454167 C552.523938,158.521389 551.355952,158.756667 549.944286,159.16 C548.404286,159.6 547.354286,160.16 546.794286,160.84 L546.794286,160.84 L546.794286,178 L534.794286,178 L534.794286,148 L540.794286,148 L544.094286,151.36 L544.419823,151.070041 C546.724616,149.072438 549.576104,147.749091 552.974286,147.1 L552.974286,147.1 Z M435.052857,147.1 C438.272857,147.1 440.782857,147.71 442.582857,148.93 C444.382857,150.15 445.282857,151.84 445.282857,154 L445.282857,154 L445.282857,178 L433.282857,178 L433.282857,157 L432.442857,157 L432.136295,157.001875 C431.44067,157.010625 430.882857,157.05 430.462857,157.12 C429.982857,157.2 429.542857,157.42 429.142857,157.78 C428.742857,158.14 428.522857,158.68 428.482857,159.4 L428.482857,159.4 L428.482857,178 L416.482857,178 L416.482857,157 L415.642857,157 L415.344709,157.001481 C414.572363,157.009383 413.981746,157.048889 413.572857,157.12 C413.112857,157.2 412.682857,157.45 412.282857,157.87 C411.882857,158.29 411.682857,158.92 411.682857,159.76 L411.682857,159.76 L411.682857,178 L399.682857,178 L399.682857,148 L405.682857,148 L408.382857,150.76 L408.647194,150.50324 C411.052398,148.234413 414.164286,147.1 417.982857,147.1 C421.942857,147.1 424.802857,147.92 426.562857,149.56 C429.002857,147.92 431.832857,147.1 435.052857,147.1 Z M659.812857,147.1 C663.032857,147.1 665.542857,147.71 667.342857,148.93 C669.142857,150.15 670.042857,151.84 670.042857,154 L670.042857,154 L670.042857,178 L658.042857,178 L658.042857,157 L657.202857,157 L656.896295,157.001875 C656.20067,157.010625 655.642857,157.05 655.222857,157.12 C654.742857,157.2 654.302857,157.42 653.902857,157.78 C653.502857,158.14 653.282857,158.68 653.242857,159.4 L653.242857,159.4 L653.242857,178 L641.242857,178 L641.242857,157 L640.402857,157 L640.104709,157.001481 C639.332363,157.009383 638.741746,157.048889 638.332857,157.12 C637.872857,157.2 637.442857,157.45 637.042857,157.87 C636.642857,158.29 636.442857,158.92 636.442857,159.76 L636.442857,159.76 L636.442857,178 L624.442857,178 L624.442857,148 L630.442857,148 L633.142857,150.76 L633.407194,150.50324 C635.812398,148.234413 638.924286,147.1 642.742857,147.1 C646.702857,147.1 649.562857,147.92 651.322857,149.56 C653.762857,147.92 656.592857,147.1 659.812857,147.1 Z M574.137143,155.86 L572.277143,155.86 L571.951758,155.862663 C570.677912,155.883964 569.736374,156.033077 569.127143,156.31 C568.467143,156.61 568.137143,157.3 568.137143,158.38 L568.137143,158.38 L568.137143,170.14 L569.997143,170.14 C571.357143,170.14 572.367143,170.01 573.027143,169.75 C573.687143,169.49 574.057143,168.9 574.137143,167.98 L574.137143,167.98 L574.137143,155.86 Z M607.9,165.16 L605.44,165.16 L605.114615,165.162663 C603.840769,165.183964 602.899231,165.333077 602.29,165.61 C601.63,165.91 601.3,166.6 601.3,167.68 L601.3,167.68 L601.3,170.14 L603.76,170.14 C605.52,170.14 606.65,169.94 607.15,169.54 C607.65,169.14 607.9,168.62 607.9,167.98 L607.9,167.98 L607.9,165.16 Z M379.6,152.02 L378.94,152.02 L376.48,162.52 L382,162.52 L379.6,152.02 Z M520.051429,155.86 L517.591429,155.86 L517.266044,155.862663 C515.992198,155.883964 515.050659,156.033077 514.441429,156.31 C513.781429,156.61 513.451429,157.3 513.451429,158.38 L513.451429,158.38 L513.451429,160.84 L515.911429,160.84 C517.351429,160.84 518.401429,160.69 519.061429,160.39 C519.721429,160.09 520.051429,159.4 520.051429,158.32 L520.051429,158.32 L520.051429,155.86 Z"></path>
        </g>
    </g>
</svg>